<svg xmlns="http://www.w3.org/2000/svg" viewBox="20 11 700 278"><g transform="translate(370,150)"><path fill="#161453" d="M-332.959 80.032H-282.644V-9.887C-282.644-24.928-270.452-37.12-255.411-37.12S-228.178-24.928-228.178-9.887V80.032H-177.405V-23.156C-177.405-56.473-204.414-83.481-237.731-83.481-248.383-83.481-258.378-80.702-267.062-75.855L-282.644-29.989V-138.431H-332.959L-350-88.272H-332.959Z"/><path fill="#161453" d="M-39.157-80.149-64.229 8.999-96.911-80.149-144.113-80.044-161.154-29.884H-133.251L-89.041 78.035-111.873 138.431H-56.485L17.775-80.149Z"/><path fill="#161453" d="M150.879-83.481H143.768C122.537-83.481 103.498-72.504 92.469-55.926V-80.035H42.155L25.113-29.876H42.155V80.04H92.469V7.195C92.469-13.279 109.066-29.876 129.54-29.876H132.591C138.481-47.142 150.275-81.71 150.275-81.71Z"/><path fill="#161453" d="M259.605-29.884V1.598C259.605 19.001 245.506 33.1 228.114 33.1 210.721 33.1 196.622 19.001 196.622 1.608 196.622-15.784 210.721-29.884 228.113-29.884H259.605V-80.149H228.114C182.961-80.149 146.357-43.545 146.357 1.608S182.961 83.364 228.114 83.364C273.254 83.364 309.849 46.781 309.87 1.646V-29.884Z"/><path fill="#EF4068" d="M325.163-95.458 316.823-120.296H309.796L301.455-95.458 276.618-87.117V-80.091L301.455-71.75 309.796-46.914H316.822L325.163-71.75 350-80.091V-87.117Z"/></g></svg>
